<svg width="40" height="40" viewBox="0 0 40 40" fill="none" xmlns="http://www.w3.org/2000/svg">
<path d="M20 20H20.0167" stroke="#1E3A8A" stroke-width="3.33333" stroke-linecap="round" stroke-linejoin="round"/>
<path d="M26.6668 10.0002V6.66683C26.6668 5.78277 26.3156 4.93493 25.6905 4.30981C25.0654 3.68469 24.2176 3.3335 23.3335 3.3335H16.6668C15.7828 3.3335 14.9349 3.68469 14.3098 4.30981C13.6847 4.93493 13.3335 5.78277 13.3335 6.66683V10.0002" stroke="#1E3A8A" stroke-width="3.33333" stroke-linecap="round" stroke-linejoin="round"/>
<path d="M36.6668 21.6665C31.7215 24.9315 25.9261 26.672 20.0002 26.672C14.0742 26.672 8.27884 24.9315 3.3335 21.6665" stroke="#1E3A8A" stroke-width="3.33333" stroke-linecap="round" stroke-linejoin="round"/>
<path d="M33.3335 10H6.66683C4.82588 10 3.3335 11.4924 3.3335 13.3333V30C3.3335 31.8409 4.82588 33.3333 6.66683 33.3333H33.3335C35.1744 33.3333 36.6668 31.8409 36.6668 30V13.3333C36.6668 11.4924 35.1744 10 33.3335 10Z" stroke="#1E3A8A" stroke-width="3.33333" stroke-linecap="round" stroke-linejoin="round"/>
</svg>
