<svg width="17" height="17" viewBox="0 0 17 17" fill="none" xmlns="http://www.w3.org/2000/svg">
<g clip-path="url(#clip0_99395_1369)">
<path d="M6.375 8.5C8.71888 8.5 10.625 6.59388 10.625 4.25C10.625 1.90613 8.71888 0 6.375 0C4.03113 0 2.125 1.90613 2.125 4.25C2.125 6.59388 4.03113 8.5 6.375 8.5ZM6.375 1.41667C7.93758 1.41667 9.20833 2.68742 9.20833 4.25C9.20833 5.81258 7.93758 7.08333 6.375 7.08333C4.81242 7.08333 3.54167 5.81258 3.54167 4.25C3.54167 2.68742 4.81242 1.41667 6.375 1.41667ZM7.61458 11.4892C7.21225 11.3857 6.79504 11.3333 6.375 11.3333C3.64083 11.3333 1.41667 13.5575 1.41667 16.2917C1.41667 16.6827 1.09933 17 0.708333 17C0.317333 17 0 16.6827 0 16.2917C0 12.7769 2.86025 9.91667 6.375 9.91667C6.91475 9.91667 7.45096 9.98396 7.96875 10.1178C8.34771 10.2156 8.57508 10.6016 8.47804 10.9806C8.381 11.3595 7.99638 11.5869 7.61529 11.4899L7.61458 11.4892ZM16.3774 8.41429C15.5741 7.61104 14.1745 7.61104 13.3719 8.41429L8.62113 13.1651C8.08633 13.6999 7.79096 14.4118 7.79096 15.169V16.2924C7.79096 16.6834 8.10829 17.0007 8.49929 17.0007H9.62271C10.3799 17.0007 11.0911 16.7053 11.6259 16.1705L16.3767 11.4198C16.7783 11.0181 16.9993 10.4848 16.9993 9.91667C16.9993 9.34858 16.7783 8.81521 16.3774 8.41429ZM15.3751 10.4175L10.6236 15.1683C10.3565 15.436 10.001 15.5833 9.622 15.5833H9.20692V15.1683C9.20692 14.79 9.35425 14.4344 9.622 14.1667L14.3735 9.41588C14.6405 9.14813 15.1073 9.14813 15.3751 9.41588C15.509 9.54904 15.5826 9.72683 15.5826 9.91667C15.5826 10.1065 15.509 10.2836 15.3751 10.4175Z" fill="#64748b"/>
</g>
<defs>
<clipPath id="clip0_99395_1369">
<rect width="17" height="17" fill="white"/>
</clipPath>
</defs>
</svg>
