<svg width="40" height="40" viewBox="0 0 40 40" fill="none" xmlns="http://www.w3.org/2000/svg">
<path d="M23.3335 3.3335V10.0002C23.3335 10.8842 23.6847 11.7321 24.3098 12.3572C24.9349 12.9823 25.7828 13.3335 26.6668 13.3335H33.3335" stroke="#1E3A8A" stroke-width="3.33333" stroke-linecap="round" stroke-linejoin="round"/>
<path d="M6.6665 11.6668V6.66683C6.6665 5.78277 7.01769 4.93493 7.64281 4.30981C8.26794 3.68469 9.11578 3.3335 9.99984 3.3335" stroke="#1E3A8A" stroke-width="3.33333" stroke-linecap="round" stroke-linejoin="round"/>
<path d="M6.77148 34.9985C7.09791 35.5767 7.58958 36.0442 8.18347 36.3412C8.77736 36.6381 9.4464 36.7509 10.1048 36.6652L29.9998 36.6668C30.8839 36.6668 31.7317 36.3156 32.3568 35.6905C32.982 35.0654 33.3332 34.2176 33.3332 33.3335V11.6668L24.9998 3.3335H9.99982" stroke="#1E3A8A" stroke-width="3.33333" stroke-linecap="round" stroke-linejoin="round"/>
<path d="M8.3335 18.3335L3.3335 23.3335" stroke="#1E3A8A" stroke-width="3.33333" stroke-linecap="round" stroke-linejoin="round"/>
<path d="M8.3335 28.3335L3.3335 23.3335H20.0002" stroke="#1E3A8A" stroke-width="3.33333" stroke-linecap="round" stroke-linejoin="round"/>
</svg>
