<svg width="15" height="15" viewBox="0 0 15 15" fill="none" xmlns="http://www.w3.org/2000/svg">
<path d="M14.4908 7.68984C14.4703 7.73613 13.974 8.83711 12.8707 9.94043C11.4006 11.4105 9.54374 12.1875 7.49999 12.1875C5.45624 12.1875 3.59941 11.4105 2.12929 9.94043C1.02597 8.83711 0.527338 7.73437 0.509174 7.68984C0.482522 7.6299 0.46875 7.56502 0.46875 7.49941C0.46875 7.43381 0.482522 7.36893 0.509174 7.30898C0.529682 7.2627 1.02597 6.1623 2.12929 5.05898C3.59941 3.58945 5.45624 2.8125 7.49999 2.8125C9.54374 2.8125 11.4006 3.58945 12.8707 5.05898C13.974 6.1623 14.4703 7.2627 14.4908 7.30898C14.5175 7.36893 14.5312 7.43381 14.5312 7.49941C14.5312 7.56502 14.5175 7.6299 14.4908 7.68984ZM7.49999 3.75C5.69648 3.75 4.12089 4.40566 2.8166 5.69824C2.28143 6.23045 1.82612 6.83733 1.46484 7.5C1.82602 8.16273 2.28134 8.76962 2.8166 9.30176C4.12089 10.5943 5.69648 11.25 7.49999 11.25C9.30351 11.25 10.8791 10.5943 12.1834 9.30176C12.7196 8.76975 13.1759 8.16286 13.5381 7.5C13.1156 6.71133 11.2752 3.75 7.49999 3.75ZM7.49999 10.3125C6.94373 10.3125 6.39997 10.1475 5.93745 9.83851C5.47494 9.52947 5.11445 9.09021 4.90158 8.5763C4.68871 8.06238 4.63301 7.49688 4.74154 6.95131C4.85006 6.40574 5.11792 5.9046 5.51126 5.51126C5.90459 5.11793 6.40573 4.85006 6.9513 4.74154C7.49687 4.63302 8.06237 4.68872 8.57629 4.90159C9.09021 5.11446 9.52946 5.47495 9.8385 5.93746C10.1475 6.39997 10.3125 6.94374 10.3125 7.5C10.3117 8.24568 10.0152 8.9606 9.48788 9.48788C8.9606 10.0152 8.24568 10.3117 7.49999 10.3125ZM7.49999 5.625C7.12915 5.625 6.76664 5.73497 6.4583 5.94099C6.14996 6.14702 5.90963 6.43986 5.76772 6.78247C5.62581 7.12508 5.58867 7.50208 5.66102 7.86579C5.73337 8.22951 5.91195 8.5636 6.17417 8.82583C6.43639 9.08805 6.77049 9.26663 7.1342 9.33897C7.49791 9.41132 7.87491 9.37419 8.21753 9.23227C8.56014 9.09036 8.85297 8.85004 9.059 8.54169C9.26503 8.23335 9.37499 7.87084 9.37499 7.5C9.37499 7.00272 9.17745 6.52581 8.82582 6.17418C8.47419 5.82254 7.99728 5.625 7.49999 5.625Z" fill="#2A2A2A" fill-opacity="0.2"/>
</svg>
