<svg width="15" height="15" viewBox="0 0 15 15" fill="none" xmlns="http://www.w3.org/2000/svg">
<path d="M3.0939 1.98644C3.05359 1.941 3.00465 1.90401 2.94994 1.87762C2.89523 1.85123 2.83582 1.83596 2.77516 1.83269C2.71451 1.82943 2.6538 1.83824 2.59657 1.85861C2.53935 1.87898 2.48673 1.9105 2.44177 1.95136C2.39682 1.99221 2.36042 2.04158 2.33468 2.09661C2.30895 2.15164 2.29439 2.21122 2.29186 2.27191C2.28932 2.33261 2.29886 2.3932 2.31991 2.45018C2.34097 2.50716 2.37312 2.5594 2.41451 2.60386L3.51852 3.81861C1.43445 5.09762 0.538164 7.06922 0.498572 7.15873C0.472471 7.21744 0.458984 7.28097 0.458984 7.34522C0.458984 7.40947 0.472471 7.473 0.498572 7.53171C0.518655 7.57704 1.00467 8.65465 2.08515 9.73512C3.52483 11.1742 5.34322 11.9351 7.34466 11.9351C8.37327 11.941 9.39149 11.7292 10.3325 11.3137L11.5948 12.7029C11.6352 12.7483 11.6841 12.7853 11.7388 12.8117C11.7935 12.8381 11.8529 12.8533 11.9136 12.8566C11.9742 12.8599 12.0349 12.8511 12.0922 12.8307C12.1494 12.8103 12.202 12.7788 12.247 12.7379C12.2919 12.6971 12.3283 12.6477 12.3541 12.5927C12.3798 12.5377 12.3943 12.4781 12.3969 12.4174C12.3994 12.3567 12.3899 12.2961 12.3688 12.2391C12.3478 12.1821 12.3156 12.1299 12.2742 12.0854L3.0939 1.98644ZM5.80972 6.33819L8.20078 8.96909C7.84071 9.15852 7.42793 9.22299 7.02725 9.15239C6.62656 9.08179 6.26068 8.88011 5.98704 8.57902C5.71341 8.27794 5.54752 7.8945 5.51542 7.48891C5.48333 7.08332 5.58685 6.67857 5.80972 6.33819ZM7.34466 11.017C5.57848 11.017 4.03551 10.3749 2.75822 9.1091C2.23394 8.58807 1.78804 7.99373 1.43445 7.34465C1.70357 6.84027 2.56255 5.42871 4.15142 4.51119L5.18428 5.64446C4.78441 6.15658 4.57847 6.79358 4.60286 7.44287C4.62724 8.09215 4.88038 8.71191 5.31753 9.1926C5.75469 9.67328 6.3477 9.98395 6.99176 10.0697C7.63582 10.1554 8.28945 10.0107 8.83713 9.6611L9.68235 10.5907C8.93639 10.8769 8.14361 11.0214 7.34466 11.017ZM7.68894 5.54117C7.56933 5.51835 7.46368 5.44894 7.39524 5.34821C7.3268 5.24749 7.30117 5.12371 7.324 5.00409C7.34683 4.88447 7.41624 4.77883 7.51696 4.71039C7.61768 4.64195 7.74147 4.61632 7.86108 4.63915C8.44614 4.75257 8.97885 5.05209 9.37977 5.49302C9.78069 5.93396 10.0283 6.49268 10.0857 7.08586C10.0971 7.20707 10.0598 7.32782 9.98209 7.42155C9.9044 7.51528 9.79265 7.5743 9.67144 7.58564C9.65711 7.58649 9.64274 7.58649 9.62841 7.58564C9.51367 7.58614 9.40291 7.54364 9.31795 7.46654C9.23298 7.38943 9.17997 7.28331 9.16936 7.16906C9.13072 6.77451 8.96578 6.40296 8.69905 6.10967C8.43232 5.81637 8.07806 5.61699 7.68894 5.54117ZM14.189 7.53171C14.1649 7.58564 13.5837 8.87269 12.2748 10.045C12.2301 10.0863 12.1776 10.1183 12.1204 10.1392C12.0631 10.16 12.0024 10.1693 11.9415 10.1664C11.8807 10.1635 11.821 10.1486 11.7661 10.1224C11.7111 10.0962 11.6618 10.0594 11.6212 10.014C11.5806 9.96865 11.5494 9.91565 11.5295 9.8581C11.5095 9.80056 11.5013 9.73963 11.5051 9.67885C11.509 9.61808 11.5249 9.55868 11.5519 9.50411C11.5789 9.44954 11.6165 9.40089 11.6626 9.361C12.3047 8.78411 12.8441 8.10228 13.2577 7.34465C12.9034 6.69497 12.4565 6.10022 11.9311 5.57904C10.6538 4.31437 9.11083 3.67229 7.34466 3.67229C6.97252 3.67183 6.60097 3.70196 6.23377 3.76237C6.17405 3.77293 6.11284 3.77156 6.05366 3.75832C5.99448 3.74509 5.93851 3.72026 5.88898 3.68528C5.83945 3.65029 5.79734 3.60584 5.76509 3.55448C5.73284 3.50313 5.71108 3.4459 5.70107 3.38609C5.69107 3.32628 5.69301 3.26508 5.70679 3.20602C5.72057 3.14697 5.74592 3.09123 5.78136 3.04203C5.81681 2.99282 5.86165 2.95113 5.9133 2.91936C5.96495 2.88758 6.02238 2.86636 6.08228 2.85691C6.49953 2.78801 6.92176 2.75366 7.34466 2.75419C9.34609 2.75419 11.1645 3.51506 12.6042 4.95474C13.6846 6.03522 14.1707 7.1134 14.1907 7.15873C14.2168 7.21744 14.2303 7.28097 14.2303 7.34522C14.2303 7.40947 14.2168 7.473 14.1907 7.53171H14.189Z" fill="#2A2A2A" fill-opacity="0.2"/>
</svg>
