<svg width="19" height="19" viewBox="0 0 19 19" fill="none" xmlns="http://www.w3.org/2000/svg">
<path d="M9.50474 9.74465C12.3635 9.72802 13.9025 8.18427 13.9555 5.25511C13.9064 2.43677 12.2843 0.810689 9.49525 0.79248C6.67612 0.809897 5.04449 2.5104 5.04449 5.25511C5.04449 8.08215 6.67691 9.72881 9.50474 9.74544V9.74465ZM9.49525 2.37502C11.4245 2.38769 12.3381 3.31156 12.3722 5.25352C12.335 7.2794 11.4752 8.14865 9.50474 8.16052C7.52954 8.14865 6.66899 7.28336 6.62783 5.26777C6.66741 3.2799 7.55487 2.3869 9.49525 2.37502Z" fill="white" fill-opacity="0.56"/>
<path d="M9.49524 10.8149C5.27724 10.8419 3.00753 13.1195 2.93153 17.4032C2.92361 17.8402 3.27195 18.2012 3.70895 18.2091C4.11745 18.1941 4.50615 17.8687 4.51486 17.4317C4.57503 14.0188 6.16153 12.4196 9.49524 12.3991C12.7949 12.4204 14.4273 14.0663 14.4859 17.4309C14.4938 17.8631 14.8469 18.2091 15.2776 18.2091H15.2918C15.7288 18.2012 16.0772 17.841 16.07 17.404C15.9972 13.182 13.6665 10.8426 9.49603 10.8157L9.49524 10.8149Z" fill="white" fill-opacity="0.56"/>
</svg>
