<svg width="24" height="24" viewBox="0 0 24 24" fill="none" xmlns="http://www.w3.org/2000/svg">
<path d="M9.89407 6.64136H13.1201M9.89407 10.3282H15.8853M9.89407 14.0151H15.8853" stroke="white" stroke-opacity="0.56" stroke-width="1.2" stroke-linecap="round" stroke-linejoin="round"/>
<path fill-rule="evenodd" clip-rule="evenodd" d="M20.8734 14.81C20.9546 14.0114 20.9546 13.0115 20.9546 11.7494L20.9546 9.14703C20.9548 8.1811 20.955 7.55817 20.7869 6.96862C20.6948 6.64541 20.5658 6.33388 20.4024 6.04019C20.1043 5.50449 19.6637 5.0641 18.9806 4.38123L18.8368 4.23749C18.154 3.55434 17.7136 3.11378 17.1779 2.81573C16.8842 2.65233 16.5727 2.5233 16.2495 2.43117C15.6599 2.26312 15.037 2.26324 14.0711 2.26344L12.8896 2.26345V2.26545C12.0275 2.27062 11.3018 2.28915 10.6894 2.35549C9.81823 2.44988 9.09475 2.64766 8.47269 3.09961C8.101 3.36966 7.77414 3.69652 7.5041 4.0682C7.21629 4.46434 7.03155 4.90161 6.91096 5.39196L6.15526 5.59445C3.81965 6.22027 2.43359 8.62099 3.05942 10.9566L5.08717 18.5243C5.713 20.8599 8.11371 22.2459 10.4493 21.6201L15.7912 20.1888C16.8114 19.9154 17.6505 19.3034 18.2198 18.506C18.4998 18.4084 18.7616 18.2818 19.0088 18.1166C19.4869 17.7972 19.8973 17.3867 20.2168 16.9087C20.616 16.3112 20.7902 15.6281 20.8734 14.81ZM14.0821 3.64606L13.9694 3.64604C12.5853 3.64605 11.6001 3.64751 10.8384 3.73003C10.0848 3.81168 9.63244 3.96597 9.28535 4.21815C9.03104 4.40291 8.8074 4.62656 8.62263 4.88087C8.37045 5.22796 8.21616 5.6803 8.13452 6.43387C8.05147 7.20038 8.05052 8.19326 8.05052 9.59115V11.7111C8.05052 13.02 8.05136 13.9497 8.12464 14.6701C8.19675 15.3789 8.33324 15.8081 8.55537 16.1405C8.77393 16.4676 9.05476 16.7485 9.38185 16.967C9.71429 17.1891 10.1435 17.3256 10.8523 17.3977C11.5727 17.471 12.5024 17.4719 13.8113 17.4719C15.1202 17.4719 16.0498 17.471 16.7702 17.3977C17.4791 17.3256 17.9083 17.1891 18.2407 16.967C18.5678 16.7485 18.8486 16.4676 19.0672 16.1405C19.2893 15.8081 19.4258 15.3789 19.4979 14.6701C19.5712 13.9497 19.572 13.02 19.572 11.7111V9.4068C19.572 8.95275 19.5706 8.68176 19.5445 8.48753C19.5325 8.39853 19.5184 8.35396 19.5101 8.33388C19.5082 8.32923 19.5067 8.32618 19.5058 8.32439L19.5045 8.32215L19.5023 8.32088C19.5005 8.31995 19.4975 8.31846 19.4928 8.31655C19.4727 8.30829 19.4282 8.29419 19.3392 8.28223C19.1449 8.25611 18.8739 8.25465 18.4199 8.25465L17.4569 8.25465C17.058 8.2547 16.6922 8.25474 16.3947 8.21474C16.067 8.17068 15.7207 8.06704 15.4359 7.78221C15.151 7.49737 15.0474 7.15106 15.0033 6.8234C14.9633 6.52586 14.9634 6.16009 14.9634 5.76116L14.9634 4.61385C14.9634 4.25283 14.9625 4.03759 14.9455 3.88037C14.9354 3.78789 14.9227 3.75 14.918 3.73902C14.9045 3.72095 14.8885 3.70495 14.8705 3.69152C14.8595 3.68678 14.8216 3.67404 14.7291 3.66402C14.5849 3.64839 14.3918 3.6463 14.0821 3.64606ZM15.4599 18.8461C14.9767 18.8545 14.442 18.8545 13.8496 18.8544H13.773C12.5109 18.8545 11.5109 18.8545 10.7124 18.7732C9.89424 18.69 9.21121 18.5158 8.61373 18.1166C8.13568 17.7972 7.72522 17.3867 7.4058 16.9087C7.00657 16.3112 6.83239 15.6281 6.74916 14.81C6.66792 14.0114 6.66793 13.0115 6.66794 11.7494V9.55014C6.66793 8.49828 6.66793 7.61692 6.71169 6.87671L6.5131 6.92992C4.91505 7.35811 3.9667 9.00071 4.39489 10.5988L6.42264 18.1664C6.85084 19.7645 8.49343 20.7128 10.0915 20.2846L15.4334 18.8533C15.4422 18.8509 15.4511 18.8485 15.4599 18.8461ZM19.1942 6.71238C19.2263 6.77016 19.2565 6.82894 19.2847 6.88864C19.0384 6.87199 18.759 6.87203 18.4611 6.87206L17.4982 6.87206C17.0441 6.87206 16.7731 6.8706 16.5789 6.84448C16.4899 6.83252 16.4453 6.81842 16.4253 6.81016C16.4206 6.80825 16.4175 6.80676 16.4158 6.80583L16.4135 6.80456L16.4123 6.80232C16.4113 6.80053 16.4098 6.79748 16.4079 6.79283C16.3997 6.77275 16.3856 6.72818 16.3736 6.63918C16.3475 6.44495 16.346 6.17396 16.346 5.71991L16.346 4.58132C16.346 4.3492 16.3461 4.13102 16.3359 3.9364C16.3934 3.96374 16.45 3.99292 16.5057 4.02391C16.8519 4.21651 17.1516 4.50749 17.9311 5.28701C18.7106 6.06652 19.0016 6.36622 19.1942 6.71238Z" fill="white" fill-opacity="0.56"/>
</svg>
