<svg width="40" height="40" viewBox="0 0 40 40" fill="none" xmlns="http://www.w3.org/2000/svg">
<path d="M35.5002 25.5002C35.8731 25.8718 36.1689 26.3133 36.3708 26.7995C36.5727 27.2858 36.6766 27.807 36.6766 28.3335C36.6766 28.8599 36.5727 29.3812 36.3708 29.8674C36.1689 30.3536 35.8731 30.7952 35.5002 31.1668L31.1668 35.5002C30.7952 35.8731 30.3536 36.1689 29.8674 36.3708C29.3812 36.5727 28.8599 36.6766 28.3335 36.6766C27.807 36.6766 27.2858 36.5727 26.7995 36.3708C26.3133 36.1689 25.8718 35.8731 25.5002 35.5002L4.50016 14.5002C3.75109 13.7475 3.33057 12.7287 3.33057 11.6668C3.33057 10.6049 3.75109 9.5862 4.50016 8.83349L8.83349 4.50016C9.5862 3.75109 10.6049 3.33057 11.6668 3.33057C12.7287 3.33057 13.7475 3.75109 14.5002 4.50016L35.5002 25.5002Z" stroke="#16A34A" stroke-width="3.33333" stroke-linecap="round" stroke-linejoin="round"/>
<path d="M24.1665 20.8333L27.4998 17.5" stroke="#16A34A" stroke-width="3.33333" stroke-linecap="round" stroke-linejoin="round"/>
<path d="M19.1665 15.8333L22.4998 12.5" stroke="#16A34A" stroke-width="3.33333" stroke-linecap="round" stroke-linejoin="round"/>
<path d="M14.1665 10.8333L17.4998 7.5" stroke="#16A34A" stroke-width="3.33333" stroke-linecap="round" stroke-linejoin="round"/>
<path d="M29.1665 25.8333L32.4998 22.5" stroke="#16A34A" stroke-width="3.33333" stroke-linecap="round" stroke-linejoin="round"/>
</svg>
